<?xml version="1.0" encoding="iso-8859-1"?>
<!-- Generator: Adobe Illustrator 22.0.1, SVG Export Plug-In . SVG Version: 6.00 Build 0)  -->
<svg version="1.1" xmlns="http://www.w3.org/2000/svg" xmlns:xlink="http://www.w3.org/1999/xlink" x="0px" y="0px"
	 viewBox="0 0 512 512" style="enable-background:new 0 0 512 512;" xml:space="preserve">
<g id="BULINE">
	<path id="XMLID_819_" style="fill:#574865;" d="M512,256c0,70.692-28.654,134.692-74.981,181.019S326.692,512,256,512
		s-134.692-28.654-181.019-74.981S0,326.692,0,256S28.654,121.308,74.981,74.981S185.308,0,256,0s134.692,28.654,181.019,74.981
		S512,185.308,512,256z"/>
</g>
<g id="Icons">
	<g id="XMLID_919_">
		<path id="XMLID_1237_" style="fill:#483C56;" d="M488.93,362.34c-10.825,23.68-25.157,45.423-42.332,64.563
			c-17.175,19.14-37.193,35.677-59.388,48.947c-19.185,11.48-39.997,20.518-62.009,26.685S279.98,512,256,512
			c-3.125,0-6.237-0.055-9.336-0.166s-6.184-0.279-9.254-0.504c-9.375-0.67-18.612-1.847-27.684-3.504s-17.976-3.791-26.686-6.376
			c-0.12-0.035-0.24-0.07-0.359-0.105s-0.236-0.07-0.351-0.105c-0.835-0.25-1.668-0.505-2.498-0.764s-1.657-0.521-2.482-0.786
			c-3.46-1.115-6.888-2.303-10.28-3.56c-3.392-1.257-6.75-2.585-10.07-3.98c-0.865-0.36-1.725-0.727-2.582-1.1
			s-1.713-0.75-2.568-1.13c-5.57-2.48-11.035-5.155-16.385-8.015S124.88,476,119.77,472.78c-0.195-0.125-0.388-0.247-0.579-0.369
			s-0.381-0.241-0.571-0.361c-35.66-22.72-65.315-54.025-86.055-91.004S0,301.415,0,256c0-33.065,6.27-64.665,17.684-93.678
			S45.655,106.885,66.23,84.17c5.765,3.175,11.325,7.445,16.05,13.181s8.615,12.939,11.04,21.979
			c0.785,2.93,1.322,5.915,1.649,8.925s0.441,6.045,0.381,9.075c-0.13,6.88,0.343,19.435,4.621,29.975s12.364,19.065,27.459,17.885
			c0,0,1.54-0.155,4.24-0.169s6.56,0.114,11.2,0.679c2.59,0.32,5.423,0.775,8.431,1.419c3.009,0.644,6.194,1.476,9.489,2.551
			c2.295,0.745,4.645,1.61,7.026,2.609c2.381,0.999,4.794,2.131,7.214,3.411c2.76,1.465,5.53,3.125,8.277,5.006
			s5.472,3.984,8.142,6.334c5.405,4.76,10.585,10.538,15.268,17.546s8.867,15.249,12.283,24.934l24.325,10.175l24.325,10.175
			c0,0-0.013,0.158-0.019,0.451c-0.006,0.294-0.006,0.724,0.019,1.269c0.045,1.08,0.18,2.613,0.54,4.435
			c0.36,1.822,0.945,3.935,1.89,6.175c0.525,1.24,1.16,2.517,1.927,3.806c0.767,1.289,1.667,2.589,2.722,3.874
			c0.87,1.06,1.848,2.11,2.944,3.135c1.096,1.025,2.311,2.025,3.656,2.985c0.01,0.01,0.022,0.02,0.036,0.03s0.029,0.02,0.044,0.03
			c3.855,2.73,8.783,5.125,15.083,6.83s13.973,2.72,23.318,2.69c3.99-0.01,7.97-0.288,11.922-0.796
			c3.952-0.509,7.877-1.249,11.757-2.184c7.815-1.88,21.565-4.145,36.669-1.866c15.104,2.279,31.561,9.101,44.791,25.396
			c3.145,3.875,6.52,7.55,10.14,10.959c3.62,3.409,7.485,6.551,11.61,9.361c5.635,3.835,12.348,7.792,19.574,10.8
			C473.5,360.247,481.24,362.305,488.93,362.34z"/>
		<g id="XMLID_924_">
			<path id="XMLID_1124_" style="fill:#AF6F63;" d="M387.21,475.85c-19.185,11.48-39.997,20.518-62.009,26.685S279.98,512,256,512
				c-3.125,0-6.237-0.055-9.336-0.166s-6.184-0.279-9.254-0.504c-9.375-0.67-18.612-1.847-27.684-3.504s-17.976-3.791-26.686-6.376
				c-0.12-0.035-0.24-0.07-0.359-0.105s-0.236-0.07-0.351-0.105c-0.835-0.25-1.668-0.505-2.498-0.764s-1.657-0.521-2.482-0.786
				c-3.46-1.115-6.888-2.303-10.28-3.56c-3.392-1.257-6.75-2.585-10.07-3.98c-0.865-0.36-1.725-0.727-2.582-1.1
				s-1.713-0.75-2.568-1.13c-5.57-2.48-11.035-5.155-16.385-8.015S124.88,476,119.77,472.78l4.145-28.6l4.145-28.6
				c0.15-1.025,0.31-2.047,0.482-3.065s0.357-2.03,0.557-3.035s0.413-2.008,0.636-3.005s0.459-1.99,0.704-2.975c0,0,0,0,0-0.001
				s0-0.004,0-0.009c0.105-0.4,0.208-0.795,0.313-1.189s0.213-0.786,0.328-1.181c0.24-0.915,0.495-1.825,0.762-2.73
				s0.547-1.805,0.837-2.7c0.105-0.325,0.21-0.645,0.316-0.964s0.214-0.636,0.324-0.956c0.33-0.95,0.67-1.897,1.02-2.841
				s0.71-1.884,1.08-2.819c1.625-4.055,3.465-8,5.506-11.819s4.284-7.511,6.714-11.061c1.105-1.62,2.25-3.21,3.434-4.769
				s2.406-3.086,3.666-4.581c0.21-0.245,0.422-0.495,0.638-0.745s0.433-0.5,0.653-0.745c0.47-0.54,0.942-1.075,1.42-1.605
				s0.96-1.055,1.45-1.575c3.94-4.2,8.188-8.105,12.712-11.672c4.525-3.567,9.327-6.797,14.377-9.647
				c0.005-0.005,0.013-0.01,0.02-0.015s0.015-0.01,0.02-0.015v-0.005v-0.005c0.07-0.04,0.14-0.08,0.211-0.121
				s0.144-0.084,0.219-0.129c2.885-1.61,5.848-3.102,8.884-4.467s6.146-2.603,9.326-3.703l0.905-0.31l0.905-0.31l0.4-0.14l0.4-0.14
				l1.115-0.385l1.115-0.385l0.005-0.005l0.005-0.005l2.125-0.735l2.125-0.735l3.225-1.115l3.225-1.115l0.025-0.01l0.025-0.01
				l3.9-1.35l3.9-1.35c0.005,0,0.01-0.002,0.015-0.005c0.005-0.002,0.01-0.005,0.015-0.005c0.835-0.29,1.538-0.823,2.031-1.504
				s0.779-1.511,0.779-2.396v-19.78v-19.78h25.25h25.25v20.11v20.11c0,0.805,0.235,1.575,0.654,2.228
				c0.419,0.652,1.021,1.187,1.756,1.522l5.7,2.585l5.7,2.585l0.345,0.155l0.345,0.155l3.04,1.025l3.04,1.025
				c0.225,0.07,0.45,0.145,0.675,0.224c0.225,0.079,0.45,0.161,0.675,0.246c1.075,0.375,2.142,0.768,3.2,1.175
				c1.057,0.408,2.105,0.83,3.14,1.265c0.625,0.26,1.25,0.528,1.874,0.803s1.246,0.557,1.866,0.848
				c0.31,0.145,0.618,0.29,0.924,0.436c0.306,0.146,0.611,0.294,0.916,0.444c0.44,0.215,0.878,0.43,1.314,0.647
				s0.871,0.438,1.306,0.663c0.075,0.035,0.15,0.073,0.225,0.111c0.075,0.039,0.15,0.079,0.225,0.119
				c0.19,0.105,0.38,0.205,0.57,0.305s0.38,0.2,0.57,0.305c0.8,0.43,1.59,0.87,2.374,1.319c0.784,0.449,1.561,0.906,2.336,1.371
				c1.85,1.115,3.668,2.28,5.448,3.495c1.78,1.215,3.522,2.48,5.223,3.795c0.42,0.325,0.84,0.652,1.259,0.984
				s0.836,0.666,1.251,1.006c3.88,3.155,7.548,6.562,10.983,10.195s6.637,7.49,9.587,11.545c1.585,2.18,3.098,4.415,4.534,6.705
				c1.436,2.29,2.796,4.635,4.076,7.035c0.01,0.025,0.023,0.048,0.035,0.07c0.012,0.022,0.025,0.045,0.035,0.07
				c3.355,6.28,6.165,12.898,8.373,19.785c2.207,6.888,3.812,14.045,4.757,21.405l3.735,29.06L387.21,475.85z"/>
			<path id="XMLID_1102_" style="fill:#FFFFFF;" d="M387.21,475.85c-19.185,11.48-39.997,20.518-62.009,26.685S279.98,512,256,512
				c-3.125,0-6.237-0.055-9.336-0.166s-6.184-0.279-9.254-0.504c-9.375-0.67-18.612-1.847-27.684-3.504s-17.976-3.791-26.686-6.376
				c-0.12-0.035-0.24-0.07-0.359-0.105s-0.236-0.07-0.351-0.105c-0.835-0.25-1.668-0.505-2.498-0.764s-1.657-0.521-2.482-0.786
				c-3.46-1.115-6.888-2.303-10.28-3.56c-3.392-1.257-6.75-2.585-10.07-3.98c-0.865-0.36-1.725-0.727-2.582-1.1
				s-1.713-0.75-2.568-1.13c-5.57-2.48-11.035-5.155-16.385-8.015S124.88,476,119.77,472.78l4.145-28.6l4.145-28.6
				c0.15-1.025,0.31-2.047,0.482-3.065s0.357-2.03,0.557-3.035s0.413-2.008,0.636-3.005s0.459-1.99,0.704-2.975c0,0,0,0,0-0.001
				s0-0.004,0-0.009c0.105-0.4,0.208-0.795,0.313-1.189s0.213-0.786,0.328-1.181c0.24-0.915,0.495-1.825,0.762-2.73
				s0.547-1.805,0.837-2.7c0.105-0.325,0.21-0.645,0.316-0.964s0.214-0.636,0.324-0.956c0.33-0.95,0.67-1.897,1.02-2.841
				s0.71-1.884,1.08-2.819c1.625-4.055,3.465-8,5.506-11.819s4.284-7.511,6.714-11.061c1.105-1.62,2.25-3.21,3.434-4.769
				s2.406-3.086,3.666-4.581c0.21-0.245,0.422-0.495,0.638-0.745s0.433-0.5,0.653-0.745c0.47-0.54,0.942-1.075,1.42-1.605
				s0.96-1.055,1.45-1.575c3.94-4.2,8.188-8.105,12.712-11.672c4.525-3.567,9.327-6.797,14.377-9.647
				c0.005-0.005,0.013-0.01,0.02-0.015s0.015-0.01,0.02-0.015v-0.005v-0.005c0.07-0.04,0.14-0.08,0.211-0.121
				s0.144-0.084,0.219-0.129c2.885-1.61,5.848-3.102,8.884-4.467s6.146-2.603,9.326-3.703l0.905-0.31l0.905-0.31l0.4-0.14l0.4-0.14
				c1.935,1.17,4.08,2.438,6.43,3.786c2.35,1.349,4.905,2.779,7.66,4.274c0.305,0.165,0.61,0.33,0.918,0.496
				s0.618,0.334,0.932,0.504c6.04,3.225,12.975,6.723,20.753,10.325s16.397,7.31,25.808,10.955c3.705,1.435,7.535,2.862,11.485,4.27
				c3.95,1.408,8.02,2.795,12.205,4.15c10.735,3.495,22.235,6.792,34.444,9.724c12.209,2.931,25.126,5.496,38.696,7.526
				c3.355,6.28,6.165,12.898,8.373,19.785c2.207,6.888,3.812,14.045,4.757,21.405l3.735,29.06L387.21,475.85z"/>
			<path id="XMLID_1116_" style="fill:#9F675E;" d="M267.65,269.86v19.78v19.78c0,0.885-0.285,1.715-0.779,2.396
				s-1.196,1.214-2.031,1.504c-0.005,0-0.01,0.003-0.015,0.005c-0.005,0.003-0.01,0.005-0.015,0.005l-3.925,1.36l-3.925,1.36
				l-3.225,1.115l-3.225,1.115l-2.125,0.735l-2.125,0.735l-0.005,0.005l-0.005,0.005l-1.115,0.385l-1.115,0.385l-1.305,0.45
				l-1.305,0.45c-3.175,1.1-6.282,2.335-9.316,3.698s-5.994,2.852-8.874,4.462c-0.005,0-0.008,0.003-0.01,0.005
				s-0.005,0.005-0.01,0.005c-0.075,0.045-0.147,0.088-0.219,0.129s-0.141,0.081-0.211,0.121v0.005v0.005
				c-0.025,0.015-0.048,0.028-0.07,0.04s-0.045,0.025-0.07,0.04c-0.18,0.105-0.362,0.207-0.545,0.311s-0.365,0.209-0.545,0.319
				c-5.435,3.16-10.578,6.758-15.386,10.744s-9.284,8.361-13.384,13.076c-0.22,0.245-0.437,0.495-0.652,0.745
				s-0.428,0.5-0.638,0.745c-1.26,1.495-2.482,3.022-3.666,4.581s-2.329,3.149-3.434,4.769c-0.035,0.05-0.07,0.1-0.105,0.151
				s-0.07,0.104-0.105,0.159c-2.385,3.505-4.587,7.15-6.594,10.918c-2.006,3.768-3.816,7.658-5.416,11.652
				c-0.37,0.935-0.73,1.875-1.08,2.819s-0.69,1.891-1.02,2.841c-0.11,0.32-0.217,0.638-0.324,0.956s-0.211,0.639-0.316,0.964
				c-0.29,0.895-0.57,1.795-0.837,2.7s-0.522,1.815-0.762,2.73c-0.115,0.395-0.223,0.787-0.328,1.181s-0.208,0.789-0.313,1.189
				c0,0.005,0,0.008,0,0.009s0,0.001,0,0.001c-0.245,0.985-0.48,1.977-0.704,2.975s-0.436,2-0.636,3.005
				c-0.2,1.005-0.385,2.018-0.558,3.035s-0.332,2.04-0.482,3.065l-4.625,31.925l-4.625,31.925c0.995,0.945,2,1.878,3.014,2.8
				s2.036,1.835,3.066,2.74c0.105,0.095,0.213,0.19,0.321,0.284s0.219,0.186,0.329,0.276c2.445,2.13,4.932,4.2,7.462,6.208
				s5.103,3.953,7.717,5.833c0.825,0.6,1.655,1.192,2.49,1.776c0.835,0.584,1.675,1.159,2.52,1.724
				c0.095,0.07,0.19,0.137,0.285,0.201c0.095,0.064,0.19,0.124,0.285,0.179c-0.12-0.035-0.24-0.07-0.359-0.105
				s-0.236-0.07-0.351-0.105c-0.835-0.25-1.668-0.505-2.498-0.764s-1.657-0.521-2.482-0.786c-3.46-1.115-6.888-2.303-10.28-3.56
				c-3.392-1.257-6.75-2.585-10.07-3.98c-0.865-0.36-1.725-0.727-2.582-1.1s-1.713-0.75-2.568-1.13
				c-5.57-2.48-11.035-5.155-16.385-8.015S124.88,476,119.77,472.78c-0.195-0.125-0.388-0.247-0.579-0.369s-0.381-0.241-0.571-0.361
				l4.09-28.235l4.09-28.235c0.15-1.025,0.31-2.047,0.482-3.065s0.358-2.03,0.558-3.035c0.2-1.005,0.412-2.008,0.636-3.005
				s0.459-1.99,0.704-2.975c0,0,0,0,0-0.001s0-0.004,0-0.009c0.105-0.4,0.208-0.795,0.313-1.189s0.213-0.786,0.328-1.181
				c0.24-0.915,0.495-1.825,0.762-2.73s0.547-1.805,0.837-2.7c0.105-0.325,0.21-0.645,0.316-0.964s0.214-0.636,0.324-0.956
				c0.33-0.95,0.67-1.897,1.02-2.841s0.71-1.884,1.08-2.819c1.625-4.055,3.465-8,5.506-11.819s4.284-7.511,6.714-11.061
				c1.105-1.62,2.25-3.21,3.434-4.769s2.406-3.086,3.666-4.581c0.21-0.245,0.423-0.495,0.638-0.745s0.433-0.5,0.652-0.745
				c0.68-0.78,1.37-1.553,2.071-2.316c0.701-0.764,1.414-1.519,2.139-2.264c3.785-3.91,7.845-7.55,12.153-10.886
				c4.307-3.336,8.862-6.369,13.638-9.064v-0.005v-0.005c0.07-0.04,0.14-0.08,0.211-0.121s0.144-0.084,0.219-0.129
				c0.135-0.075,0.27-0.15,0.406-0.225s0.274-0.15,0.414-0.225c2.76-1.515,5.592-2.92,8.492-4.209s5.867-2.461,8.897-3.511
				l1.305-0.45l1.305-0.45l1.115-0.385l1.115-0.385l0.005-0.005l0.005-0.005l2.125-0.735l2.125-0.735l3.225-1.115l3.225-1.115
				l0.635-0.22l0.635-0.22l3.29-1.14l3.29-1.14c0.005,0,0.01-0.002,0.015-0.005c0.005-0.002,0.01-0.005,0.015-0.005
				c0.835-0.29,1.537-0.823,2.031-1.504s0.779-1.511,0.779-2.396v-19.78v-19.78h19H267.65z"/>
			<path id="XMLID_1094_" style="fill:#BCBCBC;" d="M222.63,329.94c-0.18,0.105-0.362,0.207-0.545,0.311s-0.365,0.209-0.545,0.319
				c-5.435,3.16-10.578,6.758-15.386,10.744s-9.284,8.361-13.384,13.076c-0.22,0.245-0.437,0.495-0.652,0.745
				s-0.428,0.5-0.638,0.745c-1.26,1.495-2.482,3.022-3.666,4.581s-2.329,3.149-3.434,4.769c-0.035,0.05-0.07,0.1-0.105,0.151
				s-0.07,0.104-0.105,0.159c-2.385,3.505-4.587,7.15-6.594,10.918c-2.006,3.768-3.816,7.658-5.416,11.652
				c-0.37,0.935-0.73,1.875-1.08,2.819s-0.69,1.891-1.02,2.841c-0.11,0.32-0.217,0.638-0.324,0.956s-0.211,0.639-0.316,0.964
				c-0.29,0.895-0.57,1.795-0.837,2.7s-0.522,1.815-0.762,2.73c-0.115,0.395-0.223,0.787-0.328,1.181s-0.208,0.789-0.313,1.189
				c0,0.005,0,0.008,0,0.009s0,0.001,0,0.001c-0.245,0.985-0.48,1.977-0.704,2.975s-0.436,2-0.636,3.005
				c-0.2,1.005-0.385,2.018-0.558,3.035s-0.332,2.04-0.482,3.065l-4.625,31.925l-4.625,31.925c0.995,0.945,2,1.878,3.014,2.8
				s2.036,1.835,3.066,2.74c0.105,0.095,0.213,0.19,0.321,0.284s0.219,0.186,0.329,0.276c2.445,2.13,4.932,4.2,7.462,6.208
				s5.103,3.953,7.717,5.833c0.825,0.6,1.655,1.192,2.49,1.776c0.835,0.584,1.675,1.159,2.52,1.724
				c0.095,0.07,0.19,0.137,0.285,0.201c0.095,0.064,0.19,0.124,0.285,0.179c-0.12-0.035-0.24-0.07-0.359-0.105
				s-0.236-0.07-0.351-0.105c-0.835-0.25-1.668-0.505-2.498-0.764s-1.657-0.521-2.482-0.786c-3.46-1.115-6.888-2.303-10.28-3.56
				c-3.392-1.257-6.75-2.585-10.07-3.98c-0.865-0.36-1.725-0.727-2.582-1.1s-1.713-0.75-2.568-1.13
				c-5.57-2.48-11.035-5.155-16.385-8.015S124.88,476,119.77,472.78c-0.195-0.125-0.388-0.247-0.579-0.369s-0.381-0.241-0.571-0.361
				l4.09-28.235l4.09-28.235c0.15-1.025,0.31-2.047,0.482-3.065s0.358-2.03,0.558-3.035c0.2-1.005,0.412-2.008,0.636-3.005
				s0.459-1.99,0.704-2.975c0,0,0,0,0-0.001s0-0.004,0-0.009c0.105-0.4,0.208-0.795,0.313-1.189s0.213-0.786,0.328-1.181
				c0.24-0.915,0.495-1.825,0.762-2.73s0.547-1.805,0.837-2.7c0.105-0.325,0.21-0.645,0.316-0.964s0.214-0.636,0.324-0.956
				c0.33-0.95,0.67-1.897,1.02-2.841s0.71-1.884,1.08-2.819c1.625-4.055,3.465-8,5.506-11.819s4.284-7.511,6.714-11.061
				c1.105-1.62,2.25-3.21,3.434-4.769s2.406-3.086,3.666-4.581c0.21-0.245,0.423-0.495,0.638-0.745s0.433-0.5,0.652-0.745
				c0.68-0.78,1.37-1.553,2.071-2.316c0.701-0.764,1.414-1.519,2.139-2.264c3.785-3.91,7.845-7.55,12.153-10.886
				c4.307-3.336,8.862-6.369,13.638-9.064v-0.005v-0.005c0.07-0.04,0.14-0.08,0.211-0.121s0.144-0.084,0.219-0.129
				c0.135-0.075,0.27-0.15,0.406-0.225s0.274-0.15,0.414-0.225c2.76-1.515,5.592-2.92,8.492-4.209s5.867-2.461,8.897-3.511
				l1.305-0.45l1.305-0.45c0.075,0.045,0.152,0.093,0.23,0.14s0.155,0.095,0.23,0.14c2.05,1.23,4.325,2.565,6.819,3.986
				c2.494,1.421,5.206,2.929,8.131,4.504c0.2,0.105,0.4,0.213,0.6,0.32S222.43,329.835,222.63,329.94z"/>
			<path id="XMLID_1023_" style="fill:#4C3328;" d="M256,22.44L256,22.44L256,22.44c-28.035,0-53.416,11.363-71.788,29.735
				s-29.735,43.753-29.735,71.788v23.922v23.922H256h101.523v-23.922v-23.922c0-28.035-11.363-53.416-29.735-71.788
				C309.416,33.803,284.035,22.44,256,22.44z"/>
			<path id="XMLID_1022_" style="fill:#402B23;" d="M278.606,24.889c-22.68,5.075-42.495,17.737-56.64,35.184
				s-22.62,39.676-22.62,63.886v23.925v23.925h-22.26h-22.26v-23.925v-23.925c0-28.035,11.363-53.415,29.734-71.786
				s43.751-29.734,71.786-29.734c3.825,0,7.6,0.212,11.314,0.625S275.026,24.089,278.606,24.889z"/>
			<path id="XMLID_1021_" style="fill:#8E5C58;" d="M281.333,282.189h-25.917H229.5v9.333v9.333
				c8.404,2.444,17.16,3.667,25.917,3.667s17.513-1.222,25.917-3.667v-9.333V282.189z"/>
			<path id="XMLID_1020_" style="fill:#9F675E;" d="M142.595,182.468c0,5.222,2.117,9.95,5.539,13.372s8.15,5.539,13.372,5.539
				s9.95-2.117,13.372-5.539c3.422-3.422,5.539-8.15,5.539-13.372s-2.117-9.95-5.539-13.372c-3.422-3.422-8.15-5.539-13.372-5.539
				s-9.95,2.117-13.372,5.539C144.711,172.518,142.595,177.246,142.595,182.468z"/>
			<path id="XMLID_1019_" style="fill:#AF6F63;" d="M331.584,182.468c0,5.222,2.117,9.95,5.539,13.372s8.15,5.539,13.372,5.539
				c5.222,0,9.95-2.117,13.372-5.539s5.539-8.15,5.539-13.372s-2.117-9.95-5.539-13.372c-3.422-3.422-8.15-5.539-13.372-5.539
				c-5.222,0-9.95,2.117-13.372,5.539C333.701,172.518,331.584,177.246,331.584,182.468z"/>
			<path id="XMLID_1018_" style="fill:#AF6F63;" d="M160.785,163.557v16.23v16.23c0,23.975,9.539,39.802,22.556,52.683
				s29.511,22.816,43.421,35.006c8.281,7.258,18.4,10.887,28.518,10.887s20.236-3.629,28.518-10.887
				c13.91-12.191,30.404-22.126,43.421-35.006s22.556-28.708,22.556-52.683v-16.23v-16.23c-11.51-6.276-27.787-17.976-43.595-30.114
				s-31.147-24.713-40.782-32.739c-2.932-2.443-6.525-3.664-10.118-3.664c-3.593,0-7.185,1.221-10.118,3.664
				c-9.634,8.026-24.973,20.601-40.782,32.739S172.295,157.281,160.785,163.557z"/>
			<path id="XMLID_1017_" style="fill:#9F675E;" d="M216.595,157.956c-7.875,5.651-14.163,13.013-18.481,21.386
				c-4.319,8.372-6.669,17.755-6.669,27.448v0v0c0,23.975,9.54,39.8,22.557,52.68c13.017,12.88,29.512,22.815,43.422,35.01
				c0.01,0.01,0.02,0.018,0.03,0.025c0.01,0.007,0.02,0.015,0.03,0.025c-5.42,0.285-10.88-0.475-16.096-2.279
				s-10.189-4.651-14.634-8.541c-13.91-12.195-30.403-22.13-43.418-35.01c-13.015-12.88-22.553-28.705-22.553-52.68v-16.23v-16.23
				c11.51-6.275,27.785-17.975,43.591-30.114s31.144-24.716,40.779-32.746c2.935-2.44,6.528-3.66,10.12-3.66
				c3.592,0,7.185,1.22,10.12,3.66c1.665,1.385,3.5,2.907,5.477,4.54c1.977,1.633,4.098,3.375,6.333,5.2
				c-0.235,0.16-0.467,0.325-0.698,0.496c-0.23,0.171-0.457,0.349-0.682,0.534c-6.701,5.585-16.162,13.37-26.621,21.676
				C238.746,141.453,227.289,150.282,216.595,157.956z"/>
			<path style="fill:#4C3328;" d="M231.34,159.995c-0.65,0-1.307-0.181-1.894-0.56c-7.751-5-16.958-6.51-27.364-4.485
				c-7.825,1.522-13.407,4.574-13.462,4.605c-1.692,0.933-3.819,0.324-4.756-1.364c-0.937-1.688-0.333-3.815,1.354-4.754
				c0.263-0.146,6.55-3.612,15.527-5.358c12.07-2.348,23.306-0.455,32.496,5.475c1.625,1.048,2.091,3.214,1.043,4.838
				C233.615,159.429,232.489,159.995,231.34,159.995z"/>
			<path id="XMLID_1015_" style="fill:#1B305C;" d="M216.716,180.187c0,3.141-0.884,5.984-2.314,8.042s-3.405,3.331-5.587,3.331
				s-4.157-1.273-5.587-3.331s-2.314-4.901-2.314-8.042s0.884-5.984,2.314-8.042s3.405-3.331,5.587-3.331s4.157,1.273,5.587,3.331
				S216.716,177.047,216.716,180.187z"/>
			<path style="fill:#4C3328;" d="M323.182,159.995c-0.65,0-1.308-0.181-1.895-0.56c-7.751-5-16.956-6.51-27.363-4.485
				c-7.826,1.522-13.407,4.574-13.463,4.605c-1.691,0.933-3.819,0.324-4.756-1.364c-0.937-1.688-0.332-3.815,1.354-4.754
				c0.263-0.146,6.551-3.612,15.527-5.358c12.071-2.349,23.306-0.455,32.495,5.475c1.624,1.048,2.092,3.214,1.044,4.838
				C325.456,159.429,324.33,159.995,323.182,159.995z"/>
			<path id="XMLID_1012_" style="fill:#1B305C;" d="M308.558,180.187c0,3.141-0.884,5.984-2.314,8.042s-3.405,3.331-5.587,3.331
				c-2.182,0-4.157-1.273-5.587-3.331s-2.314-4.901-2.314-8.042s0.884-5.984,2.314-8.042s3.405-3.331,5.587-3.331
				c2.182,0,4.157,1.273,5.587,3.331S308.558,177.047,308.558,180.187z"/>
			<path id="XMLID_1011_" style="fill:#955949;" d="M264.243,211.794h-8.962h-8.962c-1.318,0-2.512-0.534-3.376-1.398
				c-0.864-0.864-1.398-2.058-1.398-3.376v-0.433v-0.433c0-1.318,0.534-2.512,1.398-3.376s2.058-1.398,3.376-1.398h8.962h8.962
				c1.318,0,2.512,0.534,3.376,1.398s1.398,2.058,1.398,3.376v0.433v0.433c0,1.318-0.534,2.512-1.398,3.376
				C266.755,211.259,265.561,211.794,264.243,211.794z"/>
			<path style="fill:#734343;" d="M223.178,175.308c-0.588,0-1.185-0.148-1.733-0.461c-5.497-3.142-11.415-4.097-17.589-2.842
				c-4.533,0.922-7.521,2.751-7.55,2.77c-1.638,1.014-3.795,0.518-4.817-1.115c-1.022-1.634-0.537-3.782,1.092-4.812
				c0.161-0.102,4.022-2.511,9.88-3.703c7.776-1.581,15.541-0.329,22.457,3.623c1.678,0.959,2.262,3.097,1.303,4.775
				C225.574,174.674,224.393,175.308,223.178,175.308z"/>
			<path style="fill:#734343;" d="M315.02,175.308c-0.589,0-1.186-0.148-1.733-0.461c-5.497-3.141-11.414-4.098-17.589-2.842
				c-4.532,0.922-7.521,2.751-7.55,2.77c-1.639,1.013-3.796,0.519-4.817-1.115s-0.537-3.782,1.092-4.812
				c0.162-0.102,4.022-2.511,9.88-3.703c7.781-1.581,15.543-0.328,22.457,3.623c1.679,0.959,2.262,3.097,1.303,4.775
				C317.415,174.674,316.234,175.308,315.02,175.308z"/>
			<path id="XMLID_1008_" style="fill:#FFFFFF;" d="M230.231,235.386c0,6.917,2.804,13.735,7.337,18.823
				c4.533,5.088,10.795,8.447,17.713,8.447h0h0c6.917,0,13.18-3.359,17.713-8.447c4.533-5.088,7.337-11.906,7.337-18.823H255.28
				H230.231z"/>
			<path id="XMLID_1007_" style="fill:#D74545;" d="M280.333,235.386c0,3.462-0.7,6.895-1.967,10.099s-3.102,6.18-5.373,8.73
				c-2.265,2.543-4.965,4.654-7.963,6.128c-2.998,1.475-6.294,2.314-9.751,2.314c-6.918,0-13.182-3.358-17.715-8.446
				s-7.338-11.906-7.338-18.824h0.729h0.729c1.731,5.134,4.912,9.779,9.019,13.14c4.107,3.361,9.14,5.439,14.576,5.439
				c3.456,0,6.752-0.839,9.751-2.315c2.998-1.476,5.699-3.59,7.963-6.139c1.298-1.452,2.454-3.05,3.443-4.752
				s1.81-3.507,2.438-5.374h0.729H280.333z"/>
			<path id="XMLID_1006_" style="fill:#D74545;" d="M255.28,228.865c-6.695-1.087-12.957,0.543-17.546,2.445
				c-4.589,1.902-7.504,4.076-7.504,4.076h12.525h12.525h12.525h12.525c0,0-2.915-2.174-7.504-4.076
				C268.237,229.409,261.975,227.778,255.28,228.865z"/>
			<path id="XMLID_1005_" style="fill:#955949;" d="M161.505,175.439c-1.941,0-3.698,0.787-4.97,2.059
				c-1.272,1.272-2.059,3.029-2.059,4.97s0.787,3.698,2.059,4.97s3.029,2.059,4.97,2.059v-7.028V175.439z"/>
			<path id="XMLID_1004_" style="fill:#955949;" d="M350.495,189.496c1.941,0,3.698-0.787,4.97-2.059s2.059-3.029,2.059-4.97
				s-0.787-3.698-2.059-4.97c-1.272-1.272-3.029-2.059-4.97-2.059v7.028V189.496z"/>
			<path id="XMLID_1078_" style="fill:#D74545;" d="M387.21,475.85c-19.185,11.48-39.997,20.518-62.009,26.685S279.98,512,256,512
				c-3.125,0-6.237-0.055-9.336-0.166s-6.184-0.279-9.254-0.504c-9.375-0.67-18.612-1.847-27.684-3.504s-17.976-3.791-26.686-6.376
				c-0.12-0.035-0.24-0.07-0.359-0.105s-0.236-0.07-0.351-0.105c-0.835-0.25-1.668-0.505-2.498-0.764s-1.657-0.521-2.482-0.786
				c-3.46-1.115-6.888-2.303-10.28-3.56c-3.392-1.257-6.75-2.585-10.07-3.98l2.64-3.31l2.64-3.31l8.435-10.565l8.435-10.565
				l24.39-30.555l24.39-30.555l20.925-26.21l20.925-26.21l12.72-15.935L295.22,319l0.345,0.155l0.345,0.155l3.04,1.025l3.04,1.025
				c0.225,0.07,0.45,0.145,0.675,0.224c0.225,0.079,0.45,0.161,0.675,0.246c1.075,0.375,2.142,0.768,3.2,1.175
				c1.057,0.408,2.105,0.83,3.14,1.265c0.625,0.26,1.25,0.528,1.874,0.803s1.246,0.557,1.866,0.848
				c0.31,0.145,0.618,0.29,0.924,0.436c0.306,0.146,0.611,0.294,0.916,0.444c0.44,0.215,0.878,0.43,1.314,0.647
				s0.871,0.438,1.306,0.663c0.075,0.035,0.15,0.073,0.225,0.111c0.075,0.039,0.15,0.079,0.225,0.119
				c0.19,0.105,0.38,0.205,0.57,0.305s0.38,0.2,0.57,0.305c0.8,0.43,1.59,0.87,2.374,1.319c0.784,0.449,1.561,0.906,2.336,1.371
				c1.85,1.115,3.668,2.28,5.448,3.495c1.78,1.215,3.522,2.48,5.223,3.795c0.42,0.325,0.84,0.652,1.259,0.984
				s0.836,0.666,1.251,1.006c3.88,3.155,7.548,6.562,10.983,10.195s6.637,7.49,9.587,11.545c1.585,2.18,3.098,4.415,4.534,6.705
				c1.436,2.29,2.796,4.635,4.076,7.035c0.01,0.025,0.023,0.048,0.035,0.07c0.012,0.022,0.025,0.045,0.035,0.07
				c3.355,6.28,6.165,12.898,8.373,19.785c2.207,6.888,3.812,14.045,4.757,21.405l3.735,29.06L387.21,475.85z"/>
			<path id="XMLID_1060_" style="fill:#E39123;" d="M317.88,328.11l-12.205,15.59l-12.205,15.59l-31.205,39.855L231.06,439
				l-24.295,31.035L182.47,501.07l-0.07,0.085l-0.07,0.085c-0.835-0.25-1.668-0.505-2.498-0.764s-1.657-0.521-2.482-0.786
				c-3.46-1.115-6.888-2.303-10.28-3.56c-3.392-1.257-6.75-2.585-10.07-3.98l2.64-3.31l2.64-3.31l8.435-10.565l8.435-10.565
				l24.39-30.555l24.39-30.555l20.925-26.21l20.925-26.21l12.72-15.935L295.22,319l0.345,0.155l0.345,0.155l3.04,1.025l3.04,1.025
				c0.225,0.07,0.45,0.145,0.675,0.224c0.225,0.079,0.45,0.161,0.675,0.246c1.075,0.375,2.142,0.768,3.2,1.175
				c1.057,0.408,2.105,0.83,3.14,1.265c0.625,0.26,1.25,0.528,1.874,0.803s1.246,0.557,1.866,0.848
				c0.31,0.145,0.618,0.29,0.924,0.436c0.306,0.146,0.611,0.294,0.916,0.444c0.44,0.215,0.878,0.43,1.314,0.647
				S317.445,327.885,317.88,328.11z"/>
			<path id="XMLID_1001_" style="fill:#D74545;" d="M244.667,145.189c0,2.379,0.964,4.532,2.523,6.091
				c1.559,1.559,3.712,2.523,6.091,2.523s4.532-0.964,6.091-2.523c1.559-1.559,2.523-3.712,2.523-6.091s-0.964-4.532-2.523-6.091
				c-1.559-1.559-3.712-2.523-6.091-2.523s-4.532,0.964-6.091,2.523C245.631,140.658,244.667,142.811,244.667,145.189z"/>
			<path id="XMLID_1110_" style="fill:#4C3328;" d="M237.41,511.33c-9.375-0.67-18.612-1.847-27.684-3.504
				s-17.976-3.791-26.686-6.376c-0.12-0.035-0.24-0.07-0.359-0.105s-0.236-0.07-0.351-0.105c-0.835-0.25-1.668-0.505-2.498-0.764
				s-1.657-0.521-2.482-0.786c-3.46-1.115-6.888-2.303-10.28-3.56c-3.392-1.257-6.75-2.585-10.07-3.98
				c-0.865-0.36-1.725-0.727-2.582-1.1s-1.713-0.75-2.568-1.13l3.525-69.355l3.525-69.355l0.04-0.7l0.04-0.7l2.27-44.71l2.27-44.71
				l0.125-2.455l0.125-2.455l0.345-6.795l0.345-6.795l0.125-2.455l0.125-2.455l0.08-1.585l0.08-1.585l0.29-5.665l0.29-5.665
				l0.005,0.005l0.005,0.005c0.02,0.05,0.04,0.1,0.06,0.149s0.04,0.096,0.06,0.141c0.115,0.295,0.232,0.588,0.352,0.879
				c0.12,0.291,0.242,0.581,0.367,0.871c0.01,0.04,0.022,0.078,0.037,0.114s0.032,0.071,0.052,0.106
				c0.01,0.03,0.022,0.062,0.036,0.095s0.029,0.065,0.044,0.095c0.005,0.02,0.013,0.037,0.021,0.055s0.019,0.035,0.029,0.055
				c0.125,0.29,0.253,0.578,0.383,0.863s0.263,0.568,0.398,0.848c0.01,0.025,0.02,0.05,0.031,0.074s0.024,0.046,0.039,0.066
				c0.031,0.071,0.066,0.141,0.101,0.211c0.035,0.07,0.071,0.139,0.104,0.21c0.092,0.197,0.188,0.393,0.286,0.59
				s0.198,0.393,0.299,0.59c0.04,0.085,0.083,0.172,0.126,0.26s0.089,0.175,0.134,0.26c0.025,0.05,0.05,0.098,0.076,0.144
				s0.054,0.091,0.084,0.136v0.005v0.005c0.155,0.3,0.312,0.597,0.474,0.894s0.326,0.591,0.496,0.886
				c0.005,0.02,0.013,0.04,0.023,0.059s0.022,0.036,0.037,0.051c0.22,0.39,0.445,0.775,0.675,1.157
				c0.23,0.383,0.465,0.763,0.705,1.143c0.127,0.212,0.26,0.424,0.395,0.635s0.273,0.421,0.412,0.631
				c0.04,0.061,0.079,0.122,0.119,0.183s0.079,0.122,0.119,0.182c0.2,0.311,0.404,0.617,0.612,0.921
				c0.208,0.304,0.419,0.606,0.633,0.907c0.005,0.01,0.013,0.02,0.02,0.03c0.008,0.01,0.015,0.02,0.02,0.03
				c0.215,0.3,0.43,0.598,0.647,0.894s0.437,0.591,0.663,0.886c0,0.01,0.003,0.02,0.007,0.029s0.012,0.016,0.022,0.021
				c0.2,0.27,0.403,0.538,0.609,0.803s0.416,0.527,0.631,0.788c0.02,0.035,0.042,0.068,0.067,0.1s0.053,0.065,0.083,0.1
				c0.06,0.08,0.122,0.16,0.186,0.239c0.064,0.079,0.129,0.156,0.194,0.231c0.18,0.225,0.36,0.448,0.541,0.668
				s0.364,0.438,0.549,0.652c0.165,0.2,0.33,0.397,0.499,0.594c0.169,0.196,0.341,0.391,0.521,0.586
				c0.015,0.02,0.03,0.04,0.046,0.059s0.034,0.036,0.054,0.051c0.06,0.075,0.122,0.148,0.185,0.219
				c0.062,0.071,0.125,0.141,0.185,0.211c0.085,0.1,0.175,0.203,0.269,0.305s0.191,0.205,0.291,0.305
				c0.16,0.185,0.325,0.367,0.491,0.549s0.334,0.361,0.499,0.541c0.045,0.05,0.09,0.1,0.136,0.149s0.094,0.096,0.144,0.141
				c0.215,0.23,0.432,0.46,0.651,0.689c0.219,0.229,0.439,0.456,0.659,0.681c0.19,0.19,0.378,0.38,0.565,0.569
				c0.188,0.189,0.375,0.376,0.565,0.561c0.02,0.02,0.038,0.04,0.055,0.059c0.017,0.019,0.035,0.036,0.055,0.051
				c0.095,0.095,0.19,0.19,0.285,0.284s0.19,0.186,0.285,0.276c0.07,0.07,0.143,0.14,0.215,0.21s0.145,0.14,0.215,0.21
				c0.445,0.425,0.892,0.85,1.342,1.271c0.45,0.421,0.903,0.839,1.358,1.249l0.03,0.03l0.03,0.03
				c0.125,0.115,0.25,0.227,0.375,0.339s0.25,0.221,0.375,0.331c0.075,0.07,0.152,0.14,0.231,0.21c0.079,0.07,0.159,0.14,0.239,0.21
				c0.215,0.19,0.43,0.38,0.646,0.57s0.434,0.38,0.654,0.57c0.025,0.02,0.048,0.04,0.07,0.06s0.045,0.04,0.07,0.06
				c0.195,0.17,0.39,0.34,0.586,0.509s0.394,0.336,0.594,0.501c0.44,0.375,0.883,0.747,1.327,1.117s0.892,0.738,1.342,1.103
				c1.605,1.31,3.233,2.597,4.876,3.872c1.644,1.275,3.304,2.537,4.974,3.797c0.435,0.33,0.87,0.657,1.305,0.984
				s0.87,0.651,1.305,0.976c1.14,0.85,2.28,1.7,3.417,2.551s2.272,1.704,3.402,2.559c0.505,0.38,1.008,0.76,1.508,1.14
				s0.997,0.76,1.492,1.14c0.125,0.1,0.25,0.198,0.375,0.294s0.25,0.191,0.375,0.286l0.01,0.01l0.01,0.01l1.76,20.05l1.76,20.05
				l0.02,0.21l0.02,0.21l0.55,6.28l0.55,6.28l0.03,0.355l0.03,0.355l0.055,0.635l0.055,0.635l3.195,36.36l3.195,36.36l1.565,17.855
				L231.06,439l3.175,36.165L237.41,511.33z"/>
			<path id="XMLID_1076_" style="fill:#402B23;" d="M189.81,254.66l-1.895,37.245l-1.895,37.245l-0.015,0.37l-0.015,0.37
				l-0.91,17.825l-0.91,17.825l-2.51,49.43l-2.51,49.43l-0.845,16.585l-0.845,16.585l-0.055,1.06l-0.055,1.06
				c-3.46-1.115-6.888-2.303-10.28-3.56c-3.392-1.257-6.75-2.585-10.07-3.98c-0.865-0.36-1.725-0.727-2.582-1.1
				s-1.713-0.75-2.568-1.13l3.525-69.355l3.525-69.355l0.04-0.7l0.04-0.7l2.27-44.71l2.27-44.71l0.125-2.455l0.125-2.455
				l0.345-6.795l0.345-6.795l0.125-2.455l0.125-2.455l0.08-1.585l0.08-1.585l0.29-5.665l0.29-5.665l0.005,0.005l0.005,0.005
				c0.02,0.05,0.04,0.1,0.06,0.149s0.04,0.096,0.06,0.141c0.115,0.295,0.232,0.59,0.352,0.883s0.242,0.582,0.367,0.867
				c0.01,0.04,0.022,0.078,0.037,0.114s0.032,0.071,0.052,0.106c0.01,0.03,0.022,0.062,0.036,0.095s0.029,0.065,0.044,0.095
				c0.005,0.02,0.013,0.037,0.021,0.055s0.019,0.035,0.029,0.055c0.125,0.29,0.253,0.578,0.383,0.863s0.263,0.568,0.398,0.848
				c0.01,0.025,0.02,0.05,0.031,0.074s0.024,0.046,0.039,0.066c0.09,0.205,0.185,0.408,0.284,0.609s0.201,0.401,0.306,0.601
				c0.07,0.155,0.145,0.307,0.223,0.459s0.157,0.301,0.237,0.451c0.025,0.05,0.05,0.098,0.075,0.145s0.05,0.095,0.075,0.145
				c0.155,0.3,0.315,0.6,0.479,0.897s0.331,0.592,0.501,0.882c0.005,0.02,0.013,0.04,0.023,0.059s0.022,0.036,0.037,0.051
				c0.425,0.755,0.865,1.5,1.32,2.234s0.925,1.456,1.41,2.166c0.155,0.24,0.315,0.477,0.479,0.714s0.331,0.471,0.501,0.706
				c0.215,0.31,0.432,0.618,0.655,0.923c0.222,0.305,0.45,0.607,0.685,0.907c0.11,0.155,0.223,0.31,0.339,0.464
				s0.236,0.306,0.361,0.456c0.11,0.145,0.223,0.29,0.338,0.435s0.232,0.29,0.352,0.435c0.055,0.08,0.115,0.16,0.179,0.239
				c0.064,0.079,0.131,0.156,0.201,0.231c0.17,0.22,0.348,0.443,0.53,0.664s0.37,0.441,0.56,0.656c0.165,0.2,0.33,0.397,0.499,0.594
				c0.169,0.196,0.341,0.391,0.521,0.586c0.07,0.09,0.145,0.18,0.224,0.27s0.161,0.18,0.246,0.27c0.085,0.1,0.175,0.203,0.269,0.305
				s0.191,0.205,0.291,0.305c0.16,0.185,0.325,0.367,0.491,0.549s0.334,0.361,0.499,0.541c0.045,0.05,0.09,0.1,0.136,0.149
				s0.094,0.096,0.144,0.141c0.215,0.23,0.432,0.46,0.651,0.689c0.219,0.229,0.439,0.456,0.659,0.681
				c0.19,0.19,0.378,0.38,0.565,0.569c0.188,0.189,0.375,0.376,0.565,0.561c0.02,0.02,0.038,0.04,0.055,0.059
				c0.017,0.019,0.035,0.036,0.055,0.051c0.095,0.095,0.19,0.19,0.285,0.284s0.19,0.186,0.285,0.276
				c0.07,0.07,0.143,0.14,0.215,0.21s0.145,0.14,0.215,0.21c0.445,0.425,0.892,0.85,1.342,1.271c0.45,0.421,0.903,0.839,1.358,1.249
				c0.1,0.095,0.202,0.188,0.305,0.277s0.205,0.177,0.305,0.262c0.035,0.035,0.068,0.068,0.1,0.099s0.065,0.061,0.1,0.091
				c0.075,0.07,0.152,0.14,0.231,0.21c0.079,0.07,0.159,0.14,0.239,0.21c0.215,0.19,0.43,0.38,0.646,0.57s0.434,0.38,0.654,0.57
				c0.025,0.02,0.048,0.04,0.07,0.06S189.785,254.64,189.81,254.66z"/>
			<g id="XMLID_985_">
				<g id="XMLID_996_">
					<path id="XMLID_998_" style="fill:#E39123;" d="M357.629,250.698c-0.043,3.445-1.094,6.551-2.759,8.789
						c-1.665,2.237-3.944,3.606-6.443,3.575c-2.498-0.031-4.743-1.455-6.352-3.733c-1.609-2.278-2.583-5.409-2.54-8.854
						c0.043-3.445,1.094-6.551,2.759-8.789c1.665-2.237,3.944-3.606,6.443-3.575s4.743,1.455,6.352,3.733
						C356.697,244.122,357.671,247.253,357.629,250.698z"/>
					<path id="XMLID_997_" style="fill:#5493A0;" d="M354.415,250.659c-0.028,2.221-0.705,4.225-1.779,5.667
						c-1.074,1.443-2.543,2.325-4.154,2.305c-1.611-0.02-3.058-0.938-4.096-2.407c-1.038-1.469-1.666-3.488-1.638-5.71
						s0.705-4.225,1.779-5.667c1.074-1.443,2.543-2.325,4.154-2.305c1.611,0.02,3.058,0.938,4.096,2.407
						C353.815,246.418,354.443,248.437,354.415,250.659z"/>
				</g>
				<g id="XMLID_993_">
					<path id="XMLID_995_" style="fill:#E39123;" d="M377.202,248.077c0.849,3.339,0.636,6.612-0.394,9.203
						c-1.03,2.592-2.878,4.503-5.3,5.118c-2.421,0.616-4.958-0.18-7.101-1.965c-2.143-1.785-3.894-4.558-4.743-7.897
						c-0.849-3.339-0.636-6.612,0.394-9.203c1.03-2.592,2.878-4.503,5.3-5.118s4.958,0.18,7.101,1.965
						C374.602,241.964,376.353,244.738,377.202,248.077z"/>
					<path id="XMLID_994_" style="fill:#5493A0;" d="M374.087,248.869c0.548,2.153,0.41,4.263-0.254,5.935
						c-0.664,1.671-1.856,2.903-3.417,3.301c-1.561,0.397-3.197-0.116-4.579-1.267c-1.382-1.151-2.511-2.939-3.058-5.092
						s-0.41-4.263,0.254-5.935c0.664-1.671,1.856-2.903,3.417-3.3s3.197,0.116,4.579,1.267S373.54,246.716,374.087,248.869z"/>
				</g>
				<path id="XMLID_992_" style="fill:#E39123;" d="M337.42,224.103c1.494,5.96,5.262,10.75,10.146,13.677s10.886,3.99,16.845,2.497
					c5.96-1.494,10.75-5.262,13.677-10.146s3.99-10.886,2.497-16.845c-1.494-5.96-5.262-10.75-10.146-13.677
					s-10.886-3.99-16.845-2.497c-5.96,1.494-10.75,5.262-13.677,10.146C336.989,212.142,335.926,218.143,337.42,224.103z"/>
				<path id="XMLID_991_" style="fill:#5493A0;" d="M345.272,222.135c0.95,3.791,3.347,6.839,6.455,8.701
					c3.107,1.862,6.925,2.538,10.716,1.588c3.791-0.95,6.839-3.347,8.701-6.455c1.862-3.107,2.538-6.925,1.588-10.716
					c-0.95-3.791-3.347-6.839-6.455-8.701s-6.925-2.538-10.716-1.588c-3.791,0.95-6.839,3.347-8.701,6.455
					C344.998,214.525,344.322,218.343,345.272,222.135z"/>
				<path id="XMLID_990_" style="fill:#C57C21;" d="M370.997,237.43c-0.984,0.638-2.029,1.199-3.129,1.676
					c-1.1,0.477-2.254,0.869-3.457,1.17c-5.961,1.494-11.962,0.431-16.846-2.496c-4.884-2.927-8.652-7.717-10.146-13.678
					c-1.494-5.961-0.431-11.962,2.496-16.846s7.717-8.652,13.678-10.146c1.203-0.301,2.406-0.5,3.6-0.598
					c1.194-0.098,2.38-0.097,3.549,0.002c-1.845,1.174-3.484,2.605-4.88,4.232c-1.396,1.627-2.55,3.45-3.426,5.406
					c-0.991,2.197-1.627,4.565-1.857,7.013c-0.23,2.448-0.056,4.977,0.575,7.494s1.669,4.829,3.027,6.879s3.035,3.838,4.945,5.308
					c1.695,1.312,3.572,2.375,5.571,3.151C366.696,236.775,368.816,237.265,370.997,237.43z"/>
				<path id="XMLID_989_" style="fill:#4C848A;" d="M351.155,220.66c0.631,2.517,1.669,4.829,3.027,6.879s3.035,3.838,4.945,5.308
					c-3.198,0.033-6.254-1.025-8.714-2.902c-2.46-1.877-4.324-4.572-5.136-7.812c-0.812-3.24-0.44-6.495,0.844-9.311
					c1.284-2.815,3.48-5.19,6.316-6.669c-0.991,2.197-1.627,4.565-1.857,7.013C350.349,215.615,350.524,218.143,351.155,220.66z"/>
				<g id="XMLID_986_">
					<path id="XMLID_988_" style="fill:#E39123;" d="M376.704,243.773c1.662,3.018,4.055,5.261,6.578,6.449s5.179,1.319,7.367,0.114
						c2.188-1.206,3.496-3.52,3.84-6.288s-0.273-5.988-1.936-9.006s-4.055-5.261-6.578-6.449s-5.179-1.319-7.367-0.114
						c-2.188,1.206-3.496,3.52-3.84,6.288C374.424,237.534,375.042,240.755,376.704,243.773z"/>
					<path id="XMLID_987_" style="fill:#5493A0;" d="M379.519,242.222c1.072,1.946,2.614,3.392,4.242,4.158
						c1.627,0.766,3.339,0.851,4.75,0.073c1.411-0.777,2.254-2.27,2.476-4.055c0.222-1.785-0.176-3.861-1.248-5.807
						c-1.072-1.946-2.614-3.392-4.242-4.158c-1.627-0.766-3.339-0.851-4.75-0.073c-1.411,0.777-2.254,2.27-2.476,4.055
						C378.048,238.199,378.447,240.276,379.519,242.222z"/>
				</g>
			</g>
			<g id="XMLID_951_">
				<g id="XMLID_982_">
					<path id="XMLID_984_" style="fill:#E39123;" d="M132.057,244.291c-1.808,2.933-4.306,5.057-6.885,6.12
						c-2.579,1.063-5.237,1.065-7.364-0.246c-2.127-1.311-3.32-3.687-3.529-6.468c-0.209-2.781,0.565-5.968,2.373-8.901
						s4.306-5.057,6.885-6.12c2.578-1.063,5.237-1.065,7.364,0.246s3.32,3.687,3.529,6.468
						C134.64,238.171,133.865,241.358,132.057,244.291z"/>
					<path id="XMLID_983_" style="fill:#5493A0;" d="M129.322,242.605c-1.166,1.891-2.777,3.261-4.44,3.946
						c-1.663,0.685-3.377,0.687-4.748-0.159c-1.371-0.845-2.141-2.377-2.276-4.171s0.365-3.848,1.53-5.739
						c1.166-1.891,2.777-3.261,4.44-3.946s3.377-0.687,4.748,0.159c1.371,0.845,2.141,2.377,2.276,4.171
						C130.987,238.659,130.487,240.714,129.322,242.605z"/>
				</g>
				<g id="XMLID_977_">
					<path id="XMLID_980_" style="fill:#E39123;" d="M150.194,252.105c-0.988,3.301-2.853,5.998-5.069,7.691
						c-2.216,1.693-4.784,2.382-7.177,1.666s-4.16-2.703-5.081-5.336c-0.921-2.633-0.996-5.911-0.008-9.212
						c0.988-3.301,2.853-5.998,5.069-7.691c2.216-1.693,4.784-2.382,7.177-1.666s4.16,2.703,5.081,5.336
						S151.182,248.805,150.194,252.105z"/>
					<path id="XMLID_978_" style="fill:#5493A0;" d="M147.115,251.183c-0.637,2.128-1.84,3.868-3.269,4.96
						c-1.429,1.092-3.085,1.536-4.628,1.074c-1.543-0.462-2.682-1.743-3.276-3.441s-0.642-3.812-0.005-5.94
						c0.637-2.128,1.84-3.868,3.269-4.96c1.429-1.092,3.085-1.536,4.628-1.074c1.543,0.462,2.682,1.743,3.276,3.441
						C147.704,246.941,147.752,249.055,147.115,251.183z"/>
				</g>
				<path id="XMLID_976_" style="fill:#E39123;" d="M128.396,211.09c-1.783,5.88-1.014,11.926,1.671,16.947
					c2.685,5.022,7.285,9.019,13.165,10.802c5.88,1.783,11.926,1.014,16.947-1.671s9.019-7.285,10.802-13.165
					c1.783-5.88,1.014-11.926-1.671-16.947s-7.285-9.019-13.165-10.802c-5.88-1.783-11.926-1.014-16.947,1.671
					S130.179,205.21,128.396,211.09z"/>
				<path id="XMLID_975_" style="fill:#5493A0;" d="M136.143,213.439c-1.134,3.741-0.645,7.587,1.063,10.781
					c1.708,3.195,4.635,5.737,8.375,6.872c3.741,1.134,7.587,0.645,10.781-1.063s5.737-4.635,6.872-8.375s0.645-7.587-1.063-10.781
					c-1.708-3.195-4.635-5.737-8.375-6.872s-7.587-0.645-10.781,1.063C139.821,206.771,137.278,209.698,136.143,213.439z"/>
				<path id="XMLID_973_" style="fill:#C57C21;" d="M150.345,239.783c-1.173,0.042-2.357-0.015-3.545-0.171s-2.38-0.413-3.567-0.773
					c-5.881-1.783-10.481-5.78-13.166-10.801c-2.685-5.021-3.454-11.067-1.671-16.948c1.783-5.881,5.78-10.481,10.801-13.166
					c5.021-2.685,11.067-3.454,16.948-1.671c1.187,0.36,2.32,0.808,3.395,1.338c1.075,0.53,2.091,1.141,3.043,1.827
					c-2.186,0.058-4.327,0.443-6.361,1.121c-2.034,0.678-3.961,1.648-5.718,2.876c-1.979,1.375-3.742,3.079-5.198,5.061
					c-1.456,1.981-2.606,4.24-3.359,6.723c-0.753,2.483-1.051,5-0.94,7.457c0.111,2.457,0.63,4.853,1.513,7.095
					c0.779,1.997,1.843,3.874,3.158,5.567S148.56,238.52,150.345,239.783z"/>
				<path id="XMLID_972_" style="fill:#4C848A;" d="M141.947,215.198c-0.753,2.483-1.051,5-0.94,7.457
					c0.111,2.457,0.63,4.853,1.513,7.095c-2.76-1.615-4.837-4.095-5.983-6.97s-1.358-6.145-0.389-9.341s2.962-5.797,5.511-7.552
					c2.549-1.755,5.653-2.663,8.846-2.474c-1.979,1.375-3.742,3.079-5.198,5.061C143.85,210.456,142.7,212.715,141.947,215.198z"/>
				<g id="XMLID_969_">
					<path id="XMLID_971_" style="fill:#E39123;" d="M151.98,248.157c-0.125,3.443,0.773,6.597,2.327,8.913
						c1.554,2.316,3.764,3.794,6.26,3.885c2.497,0.091,4.808-1.222,6.527-3.419c1.718-2.197,2.844-5.277,2.97-8.72
						c0.126-3.443-0.773-6.597-2.327-8.913c-1.554-2.316-3.764-3.794-6.26-3.885c-2.497-0.091-4.808,1.222-6.527,3.419
						C153.231,241.634,152.105,244.714,151.98,248.157z"/>
					<path id="XMLID_970_" style="fill:#5493A0;" d="M155.191,248.274c-0.081,2.22,0.498,4.254,1.5,5.747
						c1.002,1.493,2.427,2.446,4.037,2.505c1.61,0.059,3.1-0.788,4.208-2.205c1.108-1.416,1.834-3.403,1.915-5.623
						c0.081-2.22-0.498-4.254-1.5-5.747c-1.002-1.493-2.427-2.446-4.037-2.505s-3.1,0.788-4.208,2.205
						C155.998,244.068,155.272,246.054,155.191,248.274z"/>
				</g>
			</g>
		</g>
	</g>
</g>
</svg>
